<svg width="32" height="32" viewBox="0 0 32 32" fill="none" xmlns="http://www.w3.org/2000/svg">
<path d="M9.70711 4.29289C9.31658 3.90237 8.68342 3.90237 8.29289 4.29289L4.29289 8.29289C3.90237 8.68342 3.90237 9.31658 4.29289 9.70711C4.68342 10.0976 5.31658 10.0976 5.70711 9.70711L8 7.41421V27C8 27.5523 8.44772 28 9 28C9.55228 28 10 27.5523 10 27V7.41421L12.2929 9.70711C12.6834 10.0976 13.3166 10.0976 13.7071 9.70711C14.0976 9.31658 14.0976 8.68342 13.7071 8.29289L9.70711 4.29289ZM27.7071 23.7071C28.0976 23.3166 28.0976 22.6834 27.7071 22.2929C27.3166 21.9024 26.6834 21.9024 26.2929 22.2929L24 24.5858V5C24 4.44772 23.5523 4 23 4C22.4477 4 22 4.44772 22 5V24.5858L19.7071 22.2929C19.3166 21.9024 18.6834 21.9024 18.2929 22.2929C17.9024 22.6834 17.9024 23.3166 18.2929 23.7071L22.2929 27.7071C22.6834 28.0976 23.3166 28.0976 23.7071 27.7071L27.7071 23.7071Z" fill="black"/>
</svg>
