<!--?xml version="1.0" encoding="utf-8"?-->
<!-- Generator: Adobe Illustrator 18.1.1, SVG Export Plug-In . SVG Version: 6.00 Build 0)  -->

<svg version="1.1" id="_x32_" xmlns="http://www.w3.org/2000/svg" xmlns:xlink="http://www.w3.org/1999/xlink" x="0px" y="0px" viewBox="0 0 512 512" style="width: 64px; height: 64px; opacity: 1;" xml:space="preserve">
<style type="text/css">
	.st0{fill:#4B4B4B;}
</style>
<g>
	<path class="st0" d="M493.545,321.603L335.503,210.563l25.974-36.968c13.472,1.718,27.418-3.712,35.826-15.632
		c12.062-17.183,7.932-40.864-9.234-52.934L257.204,13.075c-17.183-12.053-40.864-7.916-52.934,9.25
		c-9,12.821-8.783,29.127-1.084,41.631l-100.38,142.861c-14.363-3.011-29.778,2.31-38.795,15.131
		c-12.062,17.174-7.924,40.864,9.242,52.934l130.874,91.946c17.167,12.07,40.848,7.924,52.926-9.242
		c8.366-11.961,8.75-26.934,2.561-39.021l25.975-36.96l158.042,111.039c19.635,13.788,46.686,9.05,60.474-10.552
		C517.885,362.458,513.164,335.399,493.545,321.603z M223.488,35.829c4.605-6.522,13.664-8.108,20.212-3.536l130.858,91.954
		c6.522,4.605,8.108,13.663,3.536,20.202c-4.604,6.514-13.663,8.1-20.202,3.528L227.033,56.033
		C220.502,51.428,218.917,42.37,223.488,35.829z M237.835,344.073c-4.604,6.523-13.672,8.108-20.202,3.537L86.766,255.665
		c-6.531-4.604-8.116-13.671-3.537-20.212c4.605-6.522,13.664-8.099,20.203-3.52l130.867,91.946
		C240.821,328.476,242.398,337.543,237.835,344.073z M239.354,306.555L120.24,222.866L224.189,74.917l119.114,83.688
		L239.354,306.555z M484.904,368.572c-6.323,8.967-18.793,11.144-27.768,4.855L293.855,258.701l22.906-32.606l163.272,114.726
		C489,347.135,491.185,359.597,484.904,368.572z" style="fill: rgb(75, 75, 75);"></path>
	<path class="st0" d="M237.043,430.239c-0.008-23.072-18.693-41.773-41.765-41.773H65.963c-23.081,0-41.765,18.702-41.765,41.773
		v6.715H0v68.873h261.241v-14.246v-54.627h-24.198V430.239z M46.586,430.256c0.017-10.677,8.717-19.385,19.385-19.402h129.298
		c10.669,0.017,19.369,8.725,19.386,19.385v12.821H46.586V430.256z M238.853,459.342v24.097H22.388v-24.097H238.853z" style="fill: rgb(75, 75, 75);"></path>
</g>
</svg>
