<svg width="32" height="32" viewBox="0 0 32 32" fill="none" xmlns="http://www.w3.org/2000/svg">
<path d="M11.0335 5.35982C11.2235 5.13182 11.5049 5 11.8017 5H20.1983C20.4951 5 20.7765 5.13182 20.9665 5.35982L23.1667 8H27C28.6569 8 30 9.34315 30 11V17.5155C28.5699 16.5583 26.8501 16 25 16C23.9398 16 22.9224 16.1833 21.9778 16.52C21.9925 16.3486 22 16.1752 22 16C22 12.6863 19.3137 10 16 10C12.6863 10 10 12.6863 10 16C10 19.3137 12.6863 22 16 22C16.1752 22 16.3486 21.9925 16.52 21.9778C16.1833 22.9224 16 23.9398 16 25C16 25.338 16.0186 25.6717 16.0549 26H5C3.34315 26 2 24.6569 2 23V11C2 9.34315 3.34315 8 5 8H8.83333L11.0335 5.35982ZM20 16C20 16.6603 19.84 17.2832 19.5567 17.8321C18.9069 18.3263 18.3263 18.9069 17.8321 19.5567C17.2832 19.84 16.6603 20 16 20C13.7909 20 12 18.2091 12 16C12 13.7909 13.7909 12 16 12C18.2091 12 20 13.7909 20 16ZM25 32C28.866 32 32 28.866 32 25C32 21.134 28.866 18 25 18C21.134 18 18 21.134 18 25C18 28.866 21.134 32 25 32ZM25 21C25.5523 21 26 21.4477 26 22V24H28C28.5523 24 29 24.4477 29 25C29 25.5523 28.5523 26 28 26H26V28C26 28.5523 25.5523 29 25 29C24.4477 29 24 28.5523 24 28V26H22C21.4477 26 21 25.5523 21 25C21 24.4477 21.4477 24 22 24H24V22C24 21.4477 24.4477 21 25 21Z" fill="white"/>
</svg>
