<svg width="32" height="32" viewBox="0 0 32 32" fill="none" xmlns="http://www.w3.org/2000/svg">
<path d="M9.77008 10L12.2701 7H19.7299L22.2299 10H27C27.5523 10 28 10.4477 28 11V16.5121C28.7121 16.7638 29.383 17.1025 30 17.5155V11C30 9.34315 28.6569 8 27 8H23.1667L20.9665 5.35982C20.7765 5.13182 20.4951 5 20.1983 5H11.8017C11.5049 5 11.2235 5.13182 11.0335 5.35982L8.83333 8H5C3.34315 8 2 9.34315 2 11V23C2 24.6569 3.34315 26 5 26H16.0549C16.0186 25.6717 16 25.338 16 25C16 24.662 16.0186 24.3283 16.0549 24H5C4.44772 24 4 23.5523 4 23V11C4 10.4477 4.44772 10 5 10H9.77008ZM22 16C22 16.1752 21.9925 16.3486 21.9778 16.52C21.0999 16.8329 20.2848 17.2783 19.5567 17.8321C19.84 17.2832 20 16.6603 20 16C20 13.7909 18.2091 12 16 12C13.7909 12 12 13.7909 12 16C12 18.2091 13.7909 20 16 20C16.6603 20 17.2832 19.84 17.8321 19.5567C17.2783 20.2848 16.8329 21.0999 16.52 21.9778C16.3486 21.9925 16.1752 22 16 22C12.6863 22 10 19.3137 10 16C10 12.6863 12.6863 10 16 10C19.3137 10 22 12.6863 22 16ZM25 32C28.866 32 32 28.866 32 25C32 21.134 28.866 18 25 18C21.134 18 18 21.134 18 25C18 28.866 21.134 32 25 32ZM25 21C25.5523 21 26 21.4477 26 22V24H28C28.5523 24 29 24.4477 29 25C29 25.5523 28.5523 26 28 26H26V28C26 28.5523 25.5523 29 25 29C24.4477 29 24 28.5523 24 28V26H22C21.4477 26 21 25.5523 21 25C21 24.4477 21.4477 24 22 24H24V22C24 21.4477 24.4477 21 25 21Z" fill="white"/>
</svg>
