<svg width="32" height="32" viewBox="0 0 32 32" fill="none" xmlns="http://www.w3.org/2000/svg">
<path d="M6 5C6 4.44772 5.55228 4 5 4C4.44772 4 4 4.44772 4 5V27C4 27.5523 4.44772 28 5 28H27C27.5523 28 28 27.5523 28 27C28 26.4477 27.5523 26 27 26H6V5ZM25.8945 7.44719C26.1414 6.95321 25.9412 6.35254 25.4472 6.10555C24.9533 5.85856 24.3526 6.05878 24.1056 6.55276L19.2789 16.2062L14.8881 13.279C14.6605 13.1273 14.3808 13.0755 14.114 13.1354C13.8472 13.1954 13.6166 13.3621 13.4759 13.5966L8.14254 22.4855C7.85839 22.9591 8.01195 23.5733 8.48553 23.8575C8.95911 24.1416 9.57337 23.9881 9.85752 23.5145L14.6513 15.5249L19.112 18.4987C19.3507 18.6578 19.6461 18.7068 19.9234 18.6331C20.2006 18.5595 20.4328 18.3704 20.5611 18.1139L25.8945 7.44719Z" fill="black"/>
</svg>
