<svg width="32" height="32" viewBox="0 0 32 32" fill="none" xmlns="http://www.w3.org/2000/svg">
<path d="M6 6L6 12H12V6H6ZM4 6C4 4.89543 4.89543 4 6 4H12C13.1046 4 14 4.89543 14 6V12C14 13.1046 13.1046 14 12 14H6C4.89543 14 4 13.1046 4 12V6ZM20 6V12H26V6H20ZM18 6C18 4.89543 18.8954 4 20 4H26C27.1046 4 28 4.89543 28 6V12C28 13.1046 27.1046 14 26 14H20C18.8954 14 18 13.1046 18 12V6ZM12 20V26H6L6 20H12ZM6 18C4.89543 18 4 18.8954 4 20V26C4 27.1046 4.89543 28 6 28H12C13.1046 28 14 27.1046 14 26V20C14 18.8954 13.1046 18 12 18H6ZM20 20V26H26V20H20ZM18 20C18 18.8954 18.8954 18 20 18H26C27.1046 18 28 18.8954 28 20V26C28 27.1046 27.1046 28 26 28H20C18.8954 28 18 27.1046 18 26V20Z" fill="black"/>
</svg>
