<svg width="32" height="32" viewBox="0 0 32 32" fill="none" xmlns="http://www.w3.org/2000/svg">
<path d="M7.88802 16.3509L7.86744 16.332C6.6775 15.2412 6 13.7011 6 12.0869C6 9.60588 8.03398 7.5 10.2196 7.5C11.6899 7.5 13.4202 8.24861 14.5856 9.41417L15.9998 10.8284L17.4141 9.41426C18.5798 8.2486 20.3101 7.5 21.7804 7.5C23.966 7.5 26 9.60588 26 12.0869C26 13.7011 25.3225 15.2412 24.1326 16.332L24.112 16.3509L15.9999 24.2145L7.88802 16.3509ZM15.9999 8C14.5 6.5 12.2752 5.5 10.2196 5.5C6.78463 5.5 4 8.65187 4 12.0869C4 14.2617 4.91279 16.3367 6.51599 17.8063L14.9559 25.9879C15.5376 26.5519 16.4622 26.5519 17.044 25.9879L25.484 17.8063C27.0872 16.3367 28 14.2617 28 12.0869C28 8.65187 25.2154 5.5 21.7804 5.5C19.7248 5.5 17.5 6.5 15.9999 8Z" fill="#000"/>
</svg>
