<svg width="32" height="32" viewBox="0 0 32 32" fill="none" xmlns="http://www.w3.org/2000/svg">
<path d="M16.7071 6.12126L24 13.4142V24.9999C24 25.5522 23.5523 25.9999 23 25.9999H20V20.9999C20 19.3431 18.6569 17.9999 17 17.9999H15C13.3431 17.9999 12 19.3431 12 20.9999V25.9999H9C8.44772 25.9999 8 25.5522 8 24.9999V13.4142L15.2929 6.12126C15.6834 5.73074 16.3166 5.73074 16.7071 6.12126ZM18.1213 4.70705C16.9497 3.53548 15.0503 3.53548 13.8787 4.70705L3.29289 15.2928C2.90237 15.6834 2.90237 16.3165 3.29289 16.707C3.68342 17.0976 4.31658 17.0976 4.70711 16.707L6 15.4142V24.9999C6 26.6568 7.34315 27.9999 9 27.9999H23C24.6569 27.9999 26 26.6568 26 24.9999V15.4142L27.2929 16.707C27.6834 17.0976 28.3166 17.0976 28.7071 16.707C29.0976 16.3165 29.0976 15.6834 28.7071 15.2928L18.1213 4.70705ZM18 25.9999H14V20.9999C14 20.4477 14.4477 19.9999 15 19.9999H17C17.5523 19.9999 18 20.4477 18 20.9999V25.9999Z" fill="black"/>
</svg>
