<svg width="32" height="32" viewBox="0 0 32 32" fill="none" xmlns="http://www.w3.org/2000/svg">
<path d="M22 14C22 9.58172 18.4183 6 14 6C9.58172 6 6 9.58172 6 14C6 18.4183 9.58172 22 14 22C18.4183 22 22 18.4183 22 14ZM19.9309 22.0522C18.2716 23.2764 16.2203 24 14 24C8.47715 24 4 19.5228 4 14C4 8.47715 8.47715 4 14 4C19.5228 4 24 8.47715 24 14C24 16.2203 23.2764 18.2716 22.0522 19.9309L27.5607 25.4393C28.1464 26.0251 28.1464 26.9749 27.5607 27.5607C26.9749 28.1464 26.0251 28.1464 25.4393 27.5607L19.9309 22.0522Z" fill="black"/>
</svg>
