<svg width="32" height="32" viewBox="0 0 32 32" fill="none" xmlns="http://www.w3.org/2000/svg">
<path d="M20 10C20 7.79086 18.2091 6 16 6C13.7909 6 12 7.79086 12 10C12 12.2091 13.7909 14 16 14C18.2091 14 20 12.2091 20 10ZM22 10C22 13.3137 19.3137 16 16 16C12.6863 16 10 13.3137 10 10C10 6.68629 12.6863 4 16 4C19.3137 4 22 6.68629 22 10ZM6 25.5C6 25.7762 6.22386 26 6.49999 26H25.5C25.7761 26 26 25.7761 26 25.5C26 24.3673 25.2599 23.0393 23.4253 21.8927C21.6188 20.7637 18.9988 20 16 20C13.0012 20 10.3811 20.7637 8.57471 21.8927C6.7401 23.0393 6 24.3673 6 25.5ZM4 25.5C4 21.3579 9.37258 18 16 18C22.6274 18 28 21.3579 28 25.5C28 26.8807 26.8807 28 25.5 28H6.49999C5.11927 28 4 26.8807 4 25.5Z" fill="black"/>
</svg>
