<svg width="32" height="32" viewBox="0 0 32 32" fill="none" xmlns="http://www.w3.org/2000/svg">
<path d="M5.70711 4.29289C5.31658 3.90237 4.68342 3.90237 4.29289 4.29289C3.90237 4.68342 3.90237 5.31658 4.29289 5.70711L26.2929 27.7071C26.6834 28.0976 27.3166 28.0976 27.7071 27.7071C28.0976 27.3166 28.0976 26.6834 27.7071 26.2929L5.70711 4.29289ZM30 16C30 17.6312 28.4418 19.8957 26.1001 21.8574L21.7968 17.5541C21.9293 17.0584 22 16.5375 22 16C22 12.6863 19.3137 10 16 10C15.4625 10 14.9416 10.0707 14.4459 10.2032L11.2137 6.97109C12.7696 6.36591 14.3999 6 16 6C22.732 6 30 12.4772 30 16ZM16.2503 12.0077C18.2601 12.1318 19.8682 13.7399 19.9923 15.7497L16.2503 12.0077ZM15.7497 19.9923L12.0077 16.2503C12.1318 18.2601 13.7399 19.8682 15.7497 19.9923ZM10 16C10 15.4625 10.0707 14.9416 10.2032 14.4459L5.89995 10.1426C3.55822 12.1043 2 14.3688 2 16C2 19.5228 9.26801 26 16 26C17.6001 26 19.2304 25.6341 20.7863 25.0289L17.5541 21.7968C17.0584 21.9293 16.5375 22 16 22C12.6863 22 10 19.3137 10 16Z" fill="black"/>
</svg>
