<svg width="32" height="32" viewBox="0 0 32 32" fill="none" xmlns="http://www.w3.org/2000/svg">
<path d="M30 16C30 19.5228 22.732 26 16 26C9.26801 26 2 19.5228 2 16C2 12.4772 9.26801 6 16 6C22.732 6 30 12.4772 30 16ZM16 20C18.2091 20 20 18.2091 20 16C20 13.7909 18.2091 12 16 12C13.7909 12 12 13.7909 12 16C12 18.2091 13.7909 20 16 20ZM16 22C19.3137 22 22 19.3137 22 16C22 12.6863 19.3137 10 16 10C12.6863 10 10 12.6863 10 16C10 19.3137 12.6863 22 16 22ZM14.25 15.75C13.4216 15.75 12.75 15.0784 12.75 14.25C12.75 13.4216 13.4216 12.75 14.25 12.75C15.0784 12.75 15.75 13.4216 15.75 14.25C15.75 15.0784 15.0784 15.75 14.25 15.75Z" fill="black"/>
</svg>
